<svg width="512" height="512" viewBox="0 0 512 512" fill="none" xmlns="http://www.w3.org/2000/svg">
  <defs>
    <linearGradient id="bg" x1="64" y1="64" x2="448" y2="448" gradientUnits="userSpaceOnUse">
      <stop stop-color="#0F314C" />
      <stop offset="0.52" stop-color="#3498DB" />
      <stop offset="1" stop-color="#2ECC71" />
    </linearGradient>
    <linearGradient id="ring" x1="124" y1="128" x2="388" y2="388" gradientUnits="userSpaceOnUse">
      <stop stop-color="#E7F8FF" />
      <stop offset="0.55" stop-color="#A7EEFF" />
      <stop offset="1" stop-color="#C2FFD8" />
    </linearGradient>
    <filter id="glow" x="58" y="58" width="396" height="396" filterUnits="userSpaceOnUse" color-interpolation-filters="sRGB">
      <feGaussianBlur stdDeviation="16" result="blur" />
      <feColorMatrix
        in="blur"
        type="matrix"
        values="0 0 0 0 0.180392 0 0 0 0 0.8 0 0 0 0 0.443137 0 0 0 0.45 0"
      />
    </filter>
  </defs>
  <rect width="512" height="512" rx="128" fill="url(#bg)" />
  <g opacity="0.22">
    <circle cx="110" cy="120" r="80" fill="#FFFFFF" />
    <circle cx="420" cy="412" r="92" fill="#E67E22" />
  </g>
  <g filter="url(#glow)">
    <path d="M164 124C116.5 160 90 212 90 268C90 363 161 428 254 428C309 428 355 409 388 373" stroke="#2ECC71" stroke-width="18" stroke-linecap="round"/>
  </g>
  <path
    d="M173 148C134 177 112 220 112 268C112 348 170 400 246 400C294 400 334 384 364 356"
    stroke="url(#ring)"
    stroke-width="24"
    stroke-linecap="round"
  />
  <path
    d="M162 168L213 336L255 222L297 336L350 168"
    stroke="#F6FDFF"
    stroke-width="26"
    stroke-linecap="round"
    stroke-linejoin="round"
  />
  <path
    d="M160 365C188 389 223 402 262 402C292 402 321 395 347 380"
    stroke="#E67E22"
    stroke-opacity="0.9"
    stroke-width="10"
    stroke-linecap="round"
  />
</svg>
