<svg width="1200" height="630" viewBox="0 0 1200 630" fill="none" xmlns="http://www.w3.org/2000/svg">
  <defs>
    <linearGradient id="bg" x1="120" y1="60" x2="1020" y2="590" gradientUnits="userSpaceOnUse">
      <stop stop-color="#12324A" />
      <stop offset="0.55" stop-color="#3498DB" />
      <stop offset="1" stop-color="#2ECC71" />
    </linearGradient>
    <linearGradient id="glass" x1="130" y1="92" x2="1040" y2="538" gradientUnits="userSpaceOnUse">
      <stop stop-color="rgba(255,255,255,0.26)" />
      <stop offset="1" stop-color="rgba(255,255,255,0.10)" />
    </linearGradient>
    <filter id="blur" x="0" y="0" width="1200" height="630" filterUnits="userSpaceOnUse" color-interpolation-filters="sRGB">
      <feGaussianBlur stdDeviation="40" />
    </filter>
  </defs>
  <rect width="1200" height="630" rx="48" fill="url(#bg)" />
  <g opacity="0.26" filter="url(#blur)">
    <circle cx="160" cy="112" r="126" fill="#2ECC71" />
    <circle cx="1020" cy="500" r="150" fill="#E67E22" />
  </g>
  <path d="M0 130H1200" stroke="rgba(255,255,255,0.14)" />
  <path d="M0 320H1200" stroke="rgba(255,255,255,0.1)" />
  <path d="M260 0V630" stroke="rgba(255,255,255,0.1)" />
  <rect x="86" y="82" width="1028" height="466" rx="36" fill="white" fill-opacity="0.14" stroke="white" stroke-opacity="0.24" />
  <rect x="136" y="130" width="144" height="144" rx="34" fill="white" fill-opacity="0.92" />
  <path d="M191 171C165 191 151 220 151 252C151 305 189 339 240 339C272 339 299 328 320 307" stroke="#1B577F" stroke-width="11" stroke-linecap="round" />
  <path d="M182 184L211 294L241 218L271 294L302 184" stroke="#16324A" stroke-width="12" stroke-linecap="round" stroke-linejoin="round" />
  <path d="M182 316C201 331 224 339 251 339C272 339 292 334 310 324" stroke="#2ECC71" stroke-width="5" stroke-linecap="round" />
  <text x="334" y="182" fill="#E8F8FF" font-family="Poppins, Arial, sans-serif" font-size="22" font-weight="700" letter-spacing="3">MYHIRE BY CW LEADERS</text>
  <text x="334" y="280" fill="white" font-family="Poppins, Arial, sans-serif" font-size="66" font-weight="800">New age hiring,</text>
  <text x="334" y="350" fill="white" font-family="Poppins, Arial, sans-serif" font-size="66" font-weight="800">built for operators.</text>
  <text x="334" y="414" fill="#E7F8FF" font-family="Roboto, Arial, sans-serif" font-size="26" font-weight="500">
    Applicant-first platform for strategic, operational, and high-trust talent.
  </text>
  <text x="334" y="452" fill="#E7F8FF" font-family="Roboto, Arial, sans-serif" font-size="26" font-weight="500">
    Based in Los Angeles, California. Operating globally.
  </text>
  <rect x="334" y="492" width="286" height="52" rx="26" fill="white" fill-opacity="0.16" stroke="white" stroke-opacity="0.22" />
  <text x="365" y="526" fill="#FFFFFF" font-family="Poppins, Arial, sans-serif" font-size="20" font-weight="700">myhire.cwleaders.com</text>
</svg>
